<svg width="38" height="39" viewBox="0 0 38 39" fill="none" xmlns="http://www.w3.org/2000/svg">
<g opacity="0.56" filter="url(#filter0_d)">
<path d="M31.75 10.2083H23.25C22.4666 10.2083 21.8333 10.8602 21.8333 11.6667V16.0417H19V5.83333C19 5.02688 18.3667 4.375 17.5833 4.375H6.24998C5.46656 4.375 4.83331 5.02688 4.83331 5.83333V29.1667C4.83331 29.9731 5.46656 30.625 6.24998 30.625H16.1666H17.5833H23.25H24.6666H31.75C32.5334 30.625 33.1666 29.9731 33.1666 29.1667V11.6667C33.1666 10.8602 32.5334 10.2083 31.75 10.2083ZM13.3333 8.75H16.1666V11.6667H13.3333V8.75ZM10.5 23.3333H7.66665V20.4167H10.5V23.3333ZM10.5 17.5H7.66665V14.5833H10.5V17.5ZM10.5 11.6667H7.66665V8.75H10.5V11.6667ZM16.1666 23.3333H13.3333V20.4167H16.1666V23.3333ZM16.1666 17.5H13.3333V14.5833H16.1666V16.0417V17.5ZM28.9166 23.3333H26.0833V20.4167H28.9166V23.3333ZM28.9166 17.5H26.0833V14.5833H28.9166V17.5Z" fill="black"/>
</g>
<defs>
<filter id="filter0_d" x="-2" y="0" width="42" height="43" filterUnits="userSpaceOnUse" color-interpolation-filters="sRGB">
<feFlood flood-opacity="0" result="BackgroundImageFix"/>
<feColorMatrix in="SourceAlpha" type="matrix" values="0 0 0 0 0 0 0 0 0 0 0 0 0 0 0 0 0 0 127 0"/>
<feOffset dy="4"/>
<feGaussianBlur stdDeviation="2"/>
<feColorMatrix type="matrix" values="0 0 0 0 0 0 0 0 0 0 0 0 0 0 0 0 0 0 0.25 0"/>
<feBlend mode="normal" in2="BackgroundImageFix" result="effect1_dropShadow"/>
<feBlend mode="normal" in="SourceGraphic" in2="effect1_dropShadow" result="shape"/>
</filter>
</defs>
</svg>
